# xmcd
#
# Track frame offsets:
#	150
#	18444
#	33037
#	47718
#	62524
#	77373
#	92250
#	112558
#	129942
#	147110
#	160780
#	172421
#
# Disc length: 2510 seconds
# Revision: 0
# Processed by: cddbd v1.5.2PL0 Copyright (c) Steve Scherf et al.
# Submitted via: dBpowerAMP V12.0
#
DISCID=8009cc0c
DTITLE=Rev. Jimmie Bratcher - Secretly Famous
DYEAR=2012
DGENRE=Blues
TTITLE0=Jupiter and Mars
TTITLE1=57
TTITLE2=Feels Like Friday
TTITLE3=It Just Feels Right
TTITLE4=Check Your Blues At the Door
TTITLE5=Tobacco Road
TTITLE6=Nowhere To Go But Down
TTITLE7=When I Fall Apart
TTITLE8=Never My Love
TTITLE9=I Can't Shake That Thing
TTITLE10=Bologna Sandwich Man
TTITLE11=Starting All Over Again
EXTD=
EXTT0=
EXTT1=
EXTT2=
EXTT3=
EXTT4=
EXTT5=
EXTT6=
EXTT7=
EXTT8=
EXTT9=
EXTT10=
EXTT11=
PLAYORDER=
